<svg xmlns="http://www.w3.org/2000/svg" xmlns:xlink="http://www.w3.org/1999/xlink" width="1000" zoomAndPan="magnify" viewBox="0 0 750 749.999995" height="1000" preserveAspectRatio="xMidYMid meet" version="1.2"><g id="4de90c4408"><path style=" stroke:none;fill-rule:evenodd;fill:#2a8274;fill-opacity:1;" d="M 198.179688 671.484375 C 203.011719 670.273438 206.628906 667.863281 211.453125 665.453125 C 387.609375 565.308594 387.609375 565.308594 387.609375 565.308594 C 609.613281 437.421875 609.613281 437.421875 609.613281 437.421875 C 655.464844 410.878906 655.464844 345.726562 609.613281 320.394531 C 387.609375 192.5 387.609375 192.5 387.609375 192.5 C 211.453125 91.15625 211.453125 91.15625 211.453125 91.15625 C 158.367188 60.996094 94.417969 110.457031 112.515625 169.578125 C 169.21875 359 169.21875 359 169.21875 359 C 170.429688 361.410156 170.429688 363.828125 170.429688 365.03125 C 235.582031 591.851562 235.582031 591.851562 235.582031 591.851562 C 245.242188 625.640625 227.140625 658.210938 198.179688 671.484375 Z M 198.179688 671.484375 "/><path style=" stroke:none;fill-rule:evenodd;fill:#f6d110;fill-opacity:1;" d="M 241.703125 592.105469 C 176.640625 365.164062 176.640625 365.164062 176.640625 365.164062 C 179.050781 376.03125 179.050781 388.101562 175.4375 397.757812 C 118.808594 588.484375 118.808594 588.484375 118.808594 588.484375 C 101.941406 641.605469 154.957031 688.679688 204.351562 671.78125 C 233.269531 658.503906 251.339844 625.910156 241.703125 592.105469 Z M 241.703125 592.105469 "/></g></svg>