<svg xmlns="http://www.w3.org/2000/svg" xmlns:xlink="http://www.w3.org/1999/xlink" width="1000" zoomAndPan="magnify" viewBox="0 0 750 749.999995" height="1000" preserveAspectRatio="xMidYMid meet" version="1.2"><defs><clipPath id="021a53dac7"><path d="M 19.730469 210 L 406 210 L 406 596.652344 L 19.730469 596.652344 Z M 19.730469 210 "/></clipPath><clipPath id="5f54190cd0"><path d="M 105 153.402344 L 726 153.402344 L 726 564 L 105 564 Z M 105 153.402344 "/></clipPath></defs><g id="a89abc6b66"><g clip-rule="nonzero" clip-path="url(#021a53dac7)"><path style=" stroke:none;fill-rule:evenodd;fill:#2a8274;fill-opacity:1;" d="M 70.867188 210.210938 L 354.859375 210.210938 C 382.976562 210.210938 405.980469 233.214844 405.980469 261.328125 L 405.980469 545.320312 C 405.980469 573.4375 382.976562 596.4375 354.859375 596.4375 L 70.867188 596.4375 C 42.757812 596.4375 19.75 573.4375 19.75 545.320312 L 19.75 261.328125 C 19.753906 233.214844 42.757812 210.210938 70.867188 210.210938 Z M 114.792969 265.59375 L 310.933594 265.59375 C 330.351562 265.59375 346.238281 281.484375 346.238281 300.898438 L 346.238281 505.75 C 346.238281 525.164062 330.351562 541.050781 310.933594 541.050781 L 114.792969 541.050781 C 95.378906 541.050781 79.488281 525.167969 79.488281 505.75 L 79.488281 300.898438 C 79.492188 281.484375 95.378906 265.59375 114.792969 265.59375 Z M 114.792969 265.59375 "/></g><g clip-rule="nonzero" clip-path="url(#5f54190cd0)"><path style=" stroke:none;fill-rule:evenodd;fill:#f6d110;fill-opacity:1;" d="M 195.558594 307.421875 C 218.402344 350.335938 238.148438 393.632812 264.066406 435.820312 C 289.554688 477.320312 304.664062 464.910156 350.574219 416.019531 C 441.535156 319.164062 518.988281 207.425781 655.015625 164.96875 C 681.933594 156.5625 700.023438 153.816406 711.214844 153.664062 C 729.984375 153.414062 728.757812 157.089844 713.339844 165.199219 C 670.3125 187.839844 649.289062 194.140625 609.144531 227.949219 C 501.886719 318.296875 390.421875 473.039062 337.039062 533.246094 C 306.332031 567.882812 268.011719 578.59375 235.742188 533.003906 C 193.730469 473.65625 145.269531 411.167969 112.074219 357.851562 C 95.535156 331.289062 111.671875 312.164062 129.90625 299.621094 C 151.503906 284.773438 179.363281 277.011719 195.558594 307.421875 Z M 195.558594 307.421875 "/></g></g></svg>