<svg xmlns="http://www.w3.org/2000/svg" xmlns:xlink="http://www.w3.org/1999/xlink" width="1000" zoomAndPan="magnify" viewBox="0 0 750 749.999995" height="1000" preserveAspectRatio="xMidYMid meet" version="1.2"><defs><clipPath id="89d313e73e"><path d="M 188 98.445312 L 675.75 98.445312 L 675.75 541 L 188 541 Z M 188 98.445312 "/></clipPath></defs><g id="b9566ca731"><path style=" stroke:none;fill-rule:nonzero;fill:#2a8274;fill-opacity:1;" d="M 341.1875 118.53125 C 395.699219 118.53125 446.378906 134.921875 488.589844 163.035156 C 476.394531 171.933594 464.542969 181.277344 453.085938 191.042969 C 420.167969 171.984375 381.945312 161.058594 341.1875 161.058594 C 279.417969 161.058594 223.511719 186.109375 183.042969 226.574219 C 142.578125 267.039062 117.550781 322.949219 117.550781 384.691406 C 117.550781 446.433594 142.578125 502.371094 183.042969 542.835938 C 223.511719 583.277344 279.417969 608.328125 341.1875 608.328125 C 402.929688 608.328125 458.839844 583.277344 499.304688 542.835938 C 539.773438 502.371094 564.796875 446.433594 564.796875 384.691406 C 564.796875 338.550781 550.808594 295.65625 526.863281 260.046875 C 536.105469 248.722656 545.738281 237.765625 555.769531 227.179688 C 588.183594 271.289062 607.347656 325.746094 607.347656 384.691406 C 607.347656 458.183594 577.546875 524.730469 529.398438 572.902344 C 481.222656 621.078125 414.675781 650.878906 341.1875 650.878906 C 267.671875 650.878906 201.125 621.078125 152.949219 572.902344 C 104.800781 524.730469 75 458.183594 75 384.691406 C 75 311.203125 104.800781 244.65625 152.949219 196.480469 C 201.125 148.308594 267.671875 118.53125 341.1875 118.53125 Z M 341.1875 118.53125 "/><g clip-rule="nonzero" clip-path="url(#89d313e73e)"><path style=" stroke:none;fill-rule:evenodd;fill:#f6d110;fill-opacity:1;" d="M 188.453125 323.054688 C 188.453125 323.054688 283.933594 395.542969 312.707031 540.515625 C 366.765625 497.9375 368.507812 497.355469 377.140625 477.242188 C 385.773438 457.097656 451.921875 217.203125 675.109375 98.707031 C 548.5625 144.71875 411.085938 232.171875 343.773438 383.453125 C 301.777344 317.882812 281.636719 302.359375 261.496094 303.496094 C 241.378906 304.65625 188.453125 323.054688 188.453125 323.054688 Z M 188.453125 323.054688 "/></g></g></svg>